<svg id="svg" version="1.1" xmlns="http://www.w3.org/2000/svg" xmlns:xlink="http://www.w3.org/1999/xlink" width="400" height="114.66666666666667" viewBox="0, 0, 400,114.66666666666667"><g id="svgg"><path id="path0" d="M101.375 33.026 L 100.000 33.359 99.999 34.055 C 99.998 34.437,99.882 35.462,99.740 36.333 C 99.598 37.204,99.413 39.342,99.329 41.083 L 99.176 44.250 99.617 45.542 L 100.058 46.833 121.336 46.833 L 142.613 46.833 144.013 45.992 C 145.924 44.843,145.916 44.869,146.165 39.583 C 146.252 37.750,146.370 35.604,146.427 34.815 L 146.532 33.380 145.955 33.023 L 145.377 32.667 124.064 32.679 C 103.336 32.692,102.712 32.701,101.375 33.026 M159.667 32.826 C 158.276 32.947,157.803 33.146,157.199 33.864 C 156.783 34.358,155.109 35.284,153.953 35.658 C 153.411 35.834,153.257 36.005,152.847 36.890 C 152.428 37.795,151.903 38.529,150.978 39.506 C 150.159 40.372,149.841 43.863,150.406 45.792 L 150.711 46.833 201.401 46.833 L 252.092 46.833 252.796 45.414 C 253.771 43.449,253.742 41.191,252.696 37.525 L 252.251 35.966 251.248 35.511 C 250.697 35.261,249.843 34.670,249.350 34.199 C 247.570 32.492,252.750 32.663,203.785 32.692 C 180.208 32.706,160.354 32.766,159.667 32.826 M259.703 33.045 C 259.376 33.393,259.333 33.619,259.330 35.011 C 259.325 37.311,259.028 42.303,258.839 43.258 C 258.684 44.039,258.711 44.157,259.346 45.458 L 260.016 46.833 284.073 46.833 L 308.130 46.833 308.501 45.458 C 309.027 43.510,309.037 39.259,308.519 38.088 C 308.166 37.290,305.976 35.010,305.145 34.575 C 304.904 34.449,304.512 34.115,304.275 33.833 C 303.302 32.676,304.901 32.755,281.328 32.701 L 260.072 32.651 259.703 33.045 M98.565 54.283 L 97.379 54.711 97.281 55.980 C 97.227 56.679,97.071 58.000,96.933 58.917 C 96.796 59.833,96.607 62.496,96.513 64.833 C 96.419 67.171,96.269 69.571,96.178 70.167 C 96.088 70.762,95.947 71.891,95.865 72.674 C 95.760 73.681,95.569 74.413,95.211 75.174 C 94.853 75.938,94.675 76.621,94.597 77.532 C 94.537 78.237,94.378 79.437,94.244 80.198 C 93.857 82.396,93.911 84.025,94.386 84.471 L 94.771 84.833 117.440 84.833 L 140.109 84.833 140.471 84.448 C 140.774 84.125,140.833 83.865,140.833 82.858 C 140.833 81.285,141.138 76.260,141.331 74.667 L 141.481 73.417 140.789 72.708 L 140.097 72.000 127.924 72.000 L 115.750 72.000 114.750 71.523 C 113.525 70.940,113.283 70.676,112.738 69.336 C 112.191 67.989,112.238 67.840,113.752 66.108 C 115.631 63.958,113.955 64.167,129.375 64.167 L 142.767 64.167 143.133 63.412 C 143.407 62.849,143.500 62.353,143.501 61.454 C 143.501 60.792,143.580 59.012,143.677 57.500 L 143.852 54.750 143.340 54.292 L 142.828 53.833 121.289 53.844 L 99.750 53.855 98.565 54.283 M149.958 54.279 C 148.606 55.215,149.417 60.558,151.179 62.321 C 152.878 64.019,152.778 64.008,167.083 64.151 C 180.346 64.283,180.034 64.256,180.815 65.334 C 182.001 66.972,182.004 69.191,180.820 70.825 C 180.007 71.948,180.731 71.900,163.584 71.959 L 148.084 72.012 147.375 72.707 L 146.667 73.403 146.665 74.910 C 146.663 76.423,146.270 77.734,145.587 78.499 C 145.446 78.657,145.332 79.368,145.279 80.417 C 145.232 81.333,145.086 82.533,144.952 83.083 C 144.721 84.041,144.725 84.099,145.059 84.466 L 145.407 84.850 166.745 84.795 C 189.400 84.737,189.323 84.740,189.833 83.991 C 190.127 83.560,191.892 82.447,192.619 82.234 C 193.713 81.914,194.047 81.614,194.404 80.633 C 194.654 79.943,195.478 78.986,195.973 78.811 C 196.349 78.678,196.818 75.995,197.076 72.500 C 197.441 67.559,197.751 65.700,198.670 62.917 C 198.740 62.707,198.054 60.392,197.757 59.833 C 197.635 59.604,197.379 58.888,197.187 58.243 C 196.858 57.132,196.179 56.167,195.727 56.167 C 195.633 56.167,195.337 55.932,195.069 55.645 C 193.955 54.449,193.646 54.199,193.128 54.078 C 192.828 54.007,183.133 53.927,171.583 53.898 L 150.583 53.847 149.958 54.279 M205.254 54.140 C 203.565 54.546,203.481 54.875,203.179 62.250 C 203.085 64.542,202.934 66.904,202.844 67.500 C 202.754 68.096,202.613 69.224,202.532 70.007 C 202.426 71.025,202.238 71.738,201.873 72.507 C 201.470 73.356,201.324 73.964,201.182 75.388 C 201.084 76.381,200.957 77.268,200.900 77.360 C 200.844 77.451,200.735 79.001,200.657 80.805 L 200.517 84.083 200.967 84.458 C 201.636 85.014,213.655 85.041,215.997 84.492 L 217.452 84.150 217.551 82.867 C 217.605 82.161,217.762 80.833,217.900 79.917 C 218.037 79.000,218.227 76.300,218.323 73.917 C 218.593 67.159,219.084 65.719,221.500 64.596 L 222.417 64.170 233.083 64.169 C 244.418 64.169,245.318 64.120,247.981 63.362 C 249.282 62.991,249.573 62.847,249.715 62.500 C 250.508 60.568,251.302 58.964,251.772 58.348 C 252.081 57.943,252.335 57.568,252.337 57.514 C 252.338 57.461,252.445 56.820,252.574 56.091 C 252.796 54.830,252.791 54.742,252.476 54.299 L 252.144 53.833 229.280 53.847 C 208.487 53.859,206.311 53.886,205.254 54.140 M257.011 54.317 C 256.720 54.726,256.666 55.057,256.661 56.442 C 256.652 58.677,256.391 63.200,256.179 64.784 C 256.083 65.499,255.938 66.690,255.857 67.431 C 255.757 68.342,255.547 69.126,255.209 69.848 C 254.859 70.594,254.675 71.295,254.600 72.167 C 254.541 72.854,254.387 74.054,254.258 74.833 C 254.130 75.612,253.973 78.020,253.911 80.184 L 253.798 84.118 254.299 84.476 C 255.073 85.027,267.352 85.035,268.917 84.486 L 269.917 84.134 270.303 82.859 C 270.516 82.157,270.754 81.021,270.833 80.333 C 270.912 79.646,271.092 78.258,271.233 77.250 C 271.374 76.242,271.565 73.542,271.657 71.250 C 271.750 68.958,271.899 66.596,271.989 66.000 C 272.079 65.404,272.220 64.276,272.302 63.493 C 272.407 62.486,272.598 61.754,272.955 60.993 C 273.313 60.231,273.492 59.545,273.569 58.645 C 273.628 57.945,273.779 56.783,273.905 56.063 C 274.120 54.827,274.114 54.728,273.805 54.293 L 273.477 53.833 265.417 53.833 L 257.356 53.833 257.011 54.317 M291.624 54.292 C 291.097 54.843,290.845 56.054,290.681 58.833 C 290.569 60.717,290.099 62.213,289.503 62.581 C 289.409 62.639,289.332 63.333,289.331 64.135 C 289.330 64.941,289.214 65.990,289.069 66.500 C 288.889 67.132,288.738 68.993,288.583 72.500 C 288.459 75.296,288.277 77.845,288.179 78.166 C 288.081 78.486,287.999 79.423,287.998 80.249 C 287.997 81.777,287.598 83.081,286.894 83.858 C 286.264 84.555,288.920 84.833,296.187 84.833 C 304.302 84.831,303.566 85.120,303.833 81.833 C 304.087 78.698,304.415 76.647,304.927 74.996 C 305.584 72.875,305.965 70.150,306.160 66.167 C 306.436 60.548,306.934 55.345,307.244 54.842 C 307.284 54.779,306.905 54.526,306.404 54.280 L 305.493 53.833 298.777 53.833 L 292.062 53.833 291.624 54.292 " stroke="none" fill="#fbf7f7" fill-rule="evenodd"></path><path id="path1" d="M0.000 57.333 L 0.000 114.667 2.333 114.667 L 4.667 114.667 4.667 114.077 C 4.667 113.752,4.811 113.204,4.987 112.858 C 5.164 112.513,5.432 111.752,5.583 111.169 C 5.908 109.914,6.464 108.768,7.246 107.744 C 7.594 107.288,7.984 106.439,8.258 105.542 C 8.764 103.883,9.174 103.013,9.849 102.170 C 10.107 101.847,10.591 100.796,10.925 99.833 C 11.746 97.467,11.921 97.070,12.338 96.629 C 12.859 96.077,13.221 95.297,13.850 93.368 C 14.242 92.166,14.593 91.430,15.023 90.909 C 15.638 90.165,16.259 88.744,16.743 86.974 C 16.896 86.414,17.241 85.743,17.594 85.321 C 18.380 84.380,18.582 83.963,19.071 82.275 C 19.525 80.711,19.994 79.684,20.417 79.333 C 20.821 78.998,21.281 78.018,21.640 76.725 C 22.082 75.140,22.379 74.484,22.956 73.821 C 23.619 73.060,23.918 72.447,24.249 71.171 C 24.568 69.938,25.173 68.680,25.853 67.834 C 26.116 67.507,26.585 66.491,26.895 65.578 C 27.648 63.362,28.007 62.500,28.178 62.500 C 28.446 62.500,29.148 61.080,29.807 59.204 C 30.171 58.170,30.590 57.157,30.740 56.954 C 30.889 56.750,31.197 56.327,31.425 56.014 C 31.652 55.700,32.114 54.584,32.450 53.533 C 32.887 52.171,33.228 51.426,33.638 50.937 C 34.291 50.157,34.673 49.339,35.188 47.616 C 35.618 46.181,35.867 45.661,36.402 45.083 C 36.928 44.515,37.419 43.456,37.811 42.038 C 38.169 40.750,38.675 39.672,39.083 39.333 C 39.506 38.982,39.955 37.995,40.333 36.583 C 40.720 35.141,41.079 34.413,41.920 33.364 C 42.242 32.963,42.613 32.225,42.759 31.697 C 43.270 29.844,43.725 28.799,44.350 28.043 C 44.814 27.482,45.172 26.720,45.691 25.197 C 46.081 24.054,46.571 22.885,46.780 22.601 C 47.654 21.414,47.861 20.997,48.439 19.250 C 48.871 17.948,49.256 17.135,49.771 16.445 C 50.307 15.726,50.655 14.974,51.111 13.551 C 51.571 12.118,51.888 11.435,52.361 10.863 C 52.939 10.163,54.000 7.708,54.000 7.069 C 54.000 6.716,54.756 5.271,55.083 5.000 C 55.750 4.447,56.667 1.899,56.667 0.601 L 56.667 0.000 28.333 0.000 L 0.000 0.000 0.000 57.333 M398.240 9.748 C 397.997 10.067,397.553 11.064,397.255 11.962 C 396.637 13.822,396.312 14.505,395.648 15.333 C 395.392 15.654,394.909 16.704,394.575 17.667 C 393.754 20.033,393.579 20.430,393.162 20.871 C 392.641 21.423,392.279 22.203,391.650 24.132 C 391.258 25.334,390.907 26.070,390.477 26.591 C 389.862 27.335,389.241 28.756,388.757 30.526 C 388.604 31.086,388.259 31.757,387.906 32.179 C 387.120 33.120,386.918 33.537,386.429 35.225 C 385.975 36.789,385.506 37.816,385.083 38.167 C 384.679 38.502,384.219 39.482,383.860 40.775 C 383.418 42.360,383.121 43.016,382.544 43.679 C 381.881 44.440,381.582 45.053,381.251 46.329 C 380.932 47.562,380.327 48.820,379.647 49.666 C 379.384 49.993,378.915 51.009,378.605 51.922 C 377.852 54.138,377.493 55.000,377.322 55.000 C 377.054 55.000,376.352 56.420,375.693 58.296 C 375.329 59.330,374.910 60.343,374.760 60.546 C 374.611 60.750,374.309 61.164,374.089 61.467 C 373.869 61.769,373.411 62.857,373.071 63.883 C 372.635 65.200,372.246 66.029,371.748 66.696 C 371.246 67.370,370.871 68.173,370.440 69.495 C 369.760 71.587,369.654 71.817,369.094 72.421 C 368.571 72.985,368.081 74.046,367.689 75.462 C 367.331 76.750,366.825 77.828,366.417 78.167 C 365.994 78.518,365.545 79.505,365.167 80.917 C 364.780 82.359,364.421 83.087,363.580 84.136 C 363.258 84.537,362.887 85.275,362.741 85.803 C 362.230 87.656,361.775 88.701,361.150 89.457 C 360.686 90.018,360.328 90.780,359.809 92.303 C 359.419 93.446,358.929 94.615,358.720 94.899 C 357.846 96.086,357.639 96.503,357.061 98.250 C 356.629 99.552,356.244 100.365,355.729 101.055 C 355.193 101.774,354.845 102.526,354.389 103.949 C 353.929 105.382,353.612 106.065,353.139 106.637 C 352.560 107.338,351.500 109.792,351.500 110.432 C 351.500 110.809,350.847 112.016,350.311 112.631 C 349.938 113.058,349.833 113.342,349.833 113.922 L 349.833 114.667 374.917 114.667 L 400.000 114.667 400.000 61.917 L 400.000 9.167 399.342 9.167 C 398.786 9.167,398.615 9.257,398.240 9.748 " stroke="none" fill="#2d2b2b" fill-rule="evenodd"></path><path id="path2" d="M99.614 31.386 C 98.134 31.845,97.836 32.677,97.828 36.365 C 97.819 40.300,97.599 42.291,97.113 42.819 C 96.208 43.805,96.188 43.881,96.464 45.378 C 96.682 46.561,96.809 46.853,97.398 47.538 C 98.608 48.942,96.527 48.833,122.218 48.833 C 147.124 48.833,146.360 48.861,147.602 47.914 L 148.134 47.508 148.393 47.904 C 149.053 48.912,145.068 48.845,201.750 48.795 L 253.417 48.750 254.069 48.365 C 254.775 47.947,255.427 47.985,258.083 48.598 C 259.693 48.969,308.302 48.943,309.087 48.570 C 309.821 48.222,310.111 47.559,310.440 45.474 C 310.590 44.526,310.881 43.215,311.088 42.561 L 311.464 41.373 311.064 40.973 C 310.748 40.657,310.627 40.281,310.483 39.162 C 310.012 35.501,310.001 35.462,309.331 34.792 C 308.987 34.448,308.559 34.167,308.379 34.167 C 307.980 34.167,307.536 33.696,307.080 32.790 C 306.239 31.120,307.012 31.169,281.500 31.168 C 255.186 31.167,258.040 30.710,257.684 34.980 C 257.481 37.419,257.705 37.104,256.069 37.246 L 254.722 37.363 254.434 36.390 C 253.892 34.553,253.745 34.342,252.691 33.887 C 251.917 33.554,251.683 33.361,251.528 32.930 C 251.291 32.276,250.779 31.791,250.000 31.481 C 249.245 31.182,159.020 31.040,157.093 31.336 C 155.384 31.598,154.623 31.989,154.148 32.850 C 153.815 33.454,153.622 33.608,152.976 33.791 C 152.047 34.053,151.394 34.663,151.167 35.481 C 150.898 36.451,150.805 36.531,150.189 36.316 L 149.651 36.128 149.681 34.634 C 149.718 32.818,149.531 32.483,148.076 31.750 L 147.083 31.250 123.667 31.220 C 106.049 31.197,100.093 31.238,99.614 31.386 M146.612 32.238 C 147.944 32.858,148.070 33.153,147.763 34.941 C 147.469 36.648,147.068 40.731,146.922 43.500 C 146.727 47.177,146.579 47.409,144.153 47.816 C 142.349 48.119,100.121 48.071,99.533 47.766 C 98.249 47.097,97.795 45.470,98.142 42.774 C 98.249 41.936,98.454 39.450,98.597 37.250 L 98.857 33.250 99.387 32.712 C 100.214 31.874,100.213 31.874,123.750 31.854 L 145.750 31.837 146.612 32.238 M248.871 32.223 C 249.305 32.391,250.017 32.884,250.455 33.318 C 250.892 33.752,251.600 34.311,252.027 34.561 C 253.045 35.155,253.722 36.412,254.583 39.306 C 254.646 39.521,255.048 40.058,255.474 40.500 C 255.901 40.942,256.488 41.591,256.779 41.943 C 257.433 42.734,257.499 42.669,257.693 41.051 C 257.778 40.335,257.955 38.925,258.086 37.917 C 258.216 36.908,258.371 35.410,258.430 34.587 C 258.533 33.137,258.555 33.072,259.165 32.462 L 259.794 31.833 281.296 31.833 C 306.408 31.833,304.101 31.663,306.268 33.672 C 306.950 34.305,307.774 35.025,308.099 35.273 C 310.227 36.897,310.722 45.468,308.801 47.450 L 308.268 48.000 283.994 48.000 L 259.720 48.000 258.709 47.495 C 258.153 47.217,257.578 46.806,257.430 46.580 C 257.116 46.101,256.154 45.575,255.296 45.414 C 254.710 45.304,254.678 45.324,254.326 46.025 C 253.848 46.975,253.546 47.303,252.798 47.684 C 251.967 48.109,151.013 48.189,150.200 47.766 C 149.034 47.159,149.032 47.150,149.172 43.079 C 149.315 38.912,149.439 38.388,150.423 37.807 C 150.781 37.597,151.350 36.965,151.810 36.268 C 152.470 35.269,152.762 34.993,153.702 34.479 C 154.314 34.145,155.164 33.585,155.592 33.234 C 156.020 32.883,156.868 32.426,157.477 32.218 L 158.583 31.840 203.333 31.879 C 246.309 31.915,248.115 31.929,248.871 32.223 M148.445 41.500 C 148.513 42.902,148.474 43.992,148.327 44.833 L 148.109 46.083 147.900 45.417 C 147.631 44.553,147.614 42.075,147.864 40.037 C 148.115 38.001,148.299 38.465,148.445 41.500 M98.742 51.141 C 95.745 51.757,95.334 52.573,95.157 58.258 C 95.010 63.016,94.938 63.589,94.418 64.167 C 93.744 64.916,93.539 65.400,93.432 66.500 C 93.373 67.096,93.218 68.296,93.086 69.167 C 92.485 73.136,92.283 84.147,92.792 85.167 C 93.420 86.423,91.516 86.333,117.380 86.333 C 142.506 86.333,141.302 86.378,141.927 85.424 C 142.090 85.175,142.339 84.147,142.505 83.035 C 142.665 81.962,142.806 81.196,142.819 81.333 C 143.109 84.631,143.471 85.699,144.435 86.102 C 145.277 86.454,190.438 86.374,191.333 86.019 C 192.119 85.707,192.625 85.223,192.867 84.552 C 193.031 84.099,193.195 83.963,193.743 83.826 C 194.905 83.536,195.500 83.187,195.855 82.583 C 196.045 82.263,196.286 81.999,196.391 81.998 C 196.497 81.997,196.894 81.708,197.273 81.355 C 198.036 80.646,198.008 80.747,198.427 77.254 C 198.724 74.777,198.759 74.674,198.942 75.776 C 199.370 78.362,199.009 82.406,198.329 82.643 C 197.998 82.759,197.812 82.960,197.742 83.281 C 197.685 83.539,197.612 83.839,197.579 83.947 C 197.509 84.176,198.953 85.622,199.624 85.995 C 200.388 86.419,217.501 86.374,218.362 85.945 C 219.442 85.408,219.553 84.950,219.683 80.500 C 219.815 75.975,219.913 75.130,220.356 74.729 C 220.975 74.169,221.296 73.414,221.409 72.250 C 221.632 69.958,222.031 68.098,222.385 67.708 L 222.725 67.333 233.654 67.327 C 246.644 67.320,247.146 67.267,247.971 65.830 C 248.174 65.477,248.480 65.286,249.164 65.088 C 250.835 64.604,251.212 64.338,251.596 63.375 C 252.030 62.286,252.055 62.262,252.509 62.505 C 252.923 62.726,252.923 62.481,252.514 74.018 C 252.336 79.058,252.270 79.588,251.755 80.167 C 250.927 81.097,250.833 81.362,250.833 82.766 L 250.833 84.125 251.666 84.932 C 253.114 86.337,252.459 86.244,261.333 86.298 C 273.698 86.373,272.726 86.995,272.996 78.833 C 273.196 72.804,273.220 72.589,273.749 72.000 C 274.435 71.237,274.631 70.760,274.744 69.583 C 274.805 68.942,274.959 67.779,275.086 67.000 C 275.382 65.181,275.732 57.822,275.641 55.333 C 275.561 53.159,275.465 52.902,274.266 51.666 L 273.458 50.833 265.417 50.833 L 257.375 50.833 256.568 51.666 C 255.459 52.809,255.330 53.117,255.148 55.057 C 254.751 59.291,254.636 59.367,254.366 55.574 C 254.193 53.135,254.093 52.862,252.932 51.666 L 252.125 50.833 229.614 50.833 C 203.427 50.833,204.693 50.766,203.116 52.233 C 202.010 53.261,201.909 53.651,201.754 57.500 C 201.602 61.248,201.497 61.610,201.043 59.948 C 200.638 58.468,200.108 57.478,199.280 56.653 C 198.966 56.340,198.438 55.671,198.108 55.167 C 197.051 53.552,196.970 53.468,196.072 53.057 C 195.587 52.834,194.565 52.536,193.803 52.395 C 192.862 52.219,192.283 52.016,192.000 51.760 C 190.887 50.756,192.656 50.833,170.800 50.833 C 148.951 50.833,150.343 50.773,148.836 51.779 C 147.982 52.350,145.518 52.350,144.664 51.779 C 143.152 50.770,144.692 50.832,121.372 50.849 C 102.255 50.863,99.947 50.893,98.742 51.141 M291.317 51.363 C 287.874 53.851,287.604 54.688,287.345 63.667 C 287.118 71.545,287.079 71.844,286.163 72.733 L 285.500 73.376 285.500 74.751 C 285.500 75.599,285.398 76.404,285.232 76.854 C 284.794 78.047,284.554 84.295,284.917 85.060 C 285.490 86.268,285.334 86.250,295.250 86.250 C 305.154 86.250,304.377 86.346,305.818 84.948 C 306.995 83.806,307.218 82.386,307.497 74.250 C 307.734 67.337,307.914 65.419,308.398 64.667 C 309.589 62.812,310.561 55.939,309.935 53.791 C 309.166 51.148,307.954 50.833,298.567 50.833 L 292.050 50.833 291.317 51.363 M144.027 53.152 C 145.248 53.988,145.405 54.434,145.106 56.202 C 144.961 57.054,144.721 58.985,144.572 60.494 C 144.285 63.410,143.956 64.631,143.222 65.503 L 142.804 66.000 129.420 66.000 L 116.036 66.000 115.099 67.012 L 114.162 68.024 114.456 68.528 C 114.618 68.804,115.031 69.287,115.375 69.599 L 116.001 70.167 128.092 70.167 C 141.701 70.167,140.582 70.060,142.083 71.503 C 142.856 72.246,143.007 72.318,144.157 72.492 L 145.398 72.680 145.796 72.171 C 146.015 71.892,146.607 71.326,147.112 70.915 L 148.031 70.167 162.771 70.167 L 177.511 70.167 178.809 69.666 C 181.194 68.746,181.193 67.420,178.808 66.500 L 177.511 66.000 166.791 66.000 L 156.071 66.000 154.577 65.483 C 152.601 64.798,150.599 63.749,150.071 63.121 C 149.572 62.528,148.435 60.306,148.261 59.583 C 148.195 59.308,147.856 58.705,147.508 58.243 C 147.160 57.781,146.819 57.144,146.751 56.826 C 146.610 56.174,146.240 55.380,145.891 54.981 C 145.680 54.739,145.779 54.673,146.870 54.326 C 147.537 54.114,148.312 53.769,148.592 53.559 C 149.850 52.615,148.577 52.667,170.690 52.667 C 195.537 52.667,193.720 52.494,196.446 55.109 C 197.452 56.074,197.919 56.667,198.227 57.371 C 198.457 57.896,198.879 58.618,199.166 58.974 C 199.940 59.937,200.662 62.398,200.665 64.083 C 200.667 65.148,200.740 65.534,201.023 66.000 C 201.496 66.775,201.609 66.481,201.837 63.880 C 201.929 62.824,202.045 61.896,202.094 61.817 C 202.142 61.738,202.295 60.125,202.432 58.232 C 202.759 53.723,203.028 53.142,204.935 52.829 C 206.314 52.604,252.084 52.610,252.506 52.836 C 253.428 53.330,253.724 54.372,253.606 56.706 C 253.441 59.972,253.403 60.124,252.658 60.504 C 251.968 60.856,251.598 61.310,250.948 62.599 C 250.474 63.541,250.045 63.883,248.775 64.334 C 248.303 64.502,247.059 64.945,246.012 65.320 L 244.107 66.000 233.437 66.000 L 222.768 66.000 222.147 66.430 C 220.922 67.279,219.904 69.450,219.739 71.564 C 219.688 72.216,219.541 73.462,219.413 74.333 C 219.284 75.204,219.059 77.792,218.912 80.083 L 218.645 84.250 218.114 84.784 C 217.319 85.583,216.415 85.664,208.241 85.665 L 201.065 85.667 200.298 85.180 C 199.345 84.576,199.250 84.283,199.490 82.689 C 199.736 81.056,199.947 76.309,199.817 75.333 C 199.352 71.837,199.008 70.265,198.764 70.516 C 198.728 70.553,198.423 72.308,198.087 74.417 C 197.343 79.082,197.309 79.198,196.343 80.245 C 195.918 80.706,195.370 81.395,195.126 81.776 C 194.788 82.304,194.416 82.595,193.552 83.002 C 192.930 83.296,192.194 83.778,191.916 84.072 C 190.335 85.749,191.643 85.667,166.653 85.667 L 145.162 85.667 144.539 85.097 L 143.917 84.526 143.806 82.138 C 143.620 78.150,143.262 75.833,142.831 75.833 C 142.667 75.833,142.204 78.811,141.915 81.717 C 141.647 84.403,141.590 84.588,140.824 85.232 L 140.308 85.667 117.384 85.667 L 94.461 85.667 93.814 85.020 L 93.167 84.373 93.170 82.561 C 93.174 80.595,93.593 74.587,93.744 74.343 C 93.795 74.261,93.918 73.382,94.018 72.390 C 94.129 71.291,94.356 70.171,94.601 69.521 C 94.821 68.935,95.043 67.922,95.094 67.269 C 95.145 66.617,95.292 65.371,95.421 64.500 C 95.549 63.629,95.776 61.044,95.925 58.755 C 96.255 53.682,96.442 53.208,98.250 52.862 C 98.759 52.764,107.724 52.711,121.262 52.726 L 143.441 52.750 144.027 53.152 M273.839 52.836 C 274.013 52.930,274.354 53.343,274.595 53.755 L 275.034 54.504 274.841 57.460 C 274.735 59.086,274.547 61.017,274.422 61.750 C 274.297 62.483,274.145 63.641,274.084 64.323 C 274.023 65.005,273.794 66.040,273.574 66.625 C 273.354 67.209,273.132 68.189,273.081 68.802 C 273.030 69.415,272.878 70.704,272.744 71.667 C 272.609 72.629,272.346 75.779,272.157 78.667 C 271.668 86.180,272.450 85.667,261.498 85.667 L 254.399 85.667 253.621 85.173 C 253.173 84.889,252.801 84.512,252.744 84.284 C 252.537 83.460,253.283 72.090,253.736 69.167 C 253.871 68.296,254.031 67.058,254.091 66.417 C 254.152 65.775,254.382 64.771,254.602 64.185 C 254.868 63.479,255.059 62.475,255.170 61.207 C 255.263 60.155,255.376 59.233,255.422 59.158 C 255.468 59.084,255.585 57.986,255.683 56.720 C 255.868 54.323,256.211 53.282,256.962 52.845 C 257.358 52.614,273.408 52.606,273.839 52.836 M307.537 53.114 C 309.159 53.863,309.283 54.753,308.335 58.833 C 307.570 62.130,307.295 64.415,306.832 71.333 C 306.588 74.972,306.222 77.749,305.667 80.167 C 305.404 81.313,305.136 82.625,305.073 83.083 C 304.910 84.253,304.608 84.756,303.776 85.244 L 303.054 85.667 295.902 85.665 C 287.660 85.664,286.857 85.589,286.003 84.742 L 285.422 84.166 285.795 82.708 C 286.022 81.821,286.168 80.751,286.167 79.977 C 286.167 78.891,286.245 78.536,286.703 77.560 C 287.188 76.526,287.250 76.216,287.345 74.316 C 287.403 73.160,287.509 72.121,287.580 72.006 C 287.651 71.891,287.775 70.586,287.856 69.107 C 288.181 63.153,288.305 61.714,288.562 60.917 C 288.718 60.430,288.830 59.509,288.832 58.703 C 288.833 57.587,288.909 57.171,289.227 56.536 C 289.443 56.104,289.748 55.362,289.903 54.888 C 290.099 54.289,290.412 53.816,290.929 53.340 L 291.673 52.654 299.212 52.702 C 306.556 52.749,306.770 52.759,307.537 53.114 M147.473 61.345 C 148.106 61.535,148.833 62.585,148.833 63.310 C 148.833 63.725,149.733 64.480,150.619 64.808 C 151.764 65.232,151.839 65.282,152.215 65.873 C 153.106 67.274,153.563 67.320,166.548 67.327 C 177.934 67.334,178.833 67.389,178.833 68.083 C 178.833 68.125,178.536 68.311,178.173 68.497 C 177.526 68.827,177.231 68.833,162.632 68.837 C 145.411 68.841,146.698 68.708,145.567 70.604 C 145.393 70.896,145.352 70.890,144.734 70.482 C 144.376 70.247,143.446 69.798,142.667 69.485 L 141.250 68.917 128.672 68.870 L 116.094 68.823 115.713 68.465 L 115.331 68.107 115.695 67.720 L 116.058 67.333 129.462 67.333 C 144.090 67.333,143.614 67.364,144.252 66.391 C 144.592 65.871,144.902 64.312,145.168 61.789 L 145.374 59.828 146.087 60.486 C 146.480 60.848,147.103 61.234,147.473 61.345 " stroke="none" fill="#e44444" fill-rule="evenodd"></path><path id="path3" d="M100.833 32.023 C 100.138 32.138,99.789 32.305,99.387 32.712 L 98.857 33.250 98.597 37.250 C 98.454 39.450,98.249 41.936,98.142 42.774 C 97.795 45.470,98.249 47.097,99.533 47.766 C 100.121 48.071,142.349 48.119,144.153 47.816 C 146.579 47.409,146.727 47.177,146.922 43.500 C 147.068 40.731,147.469 36.648,147.763 34.941 C 148.070 33.153,147.944 32.858,146.612 32.238 L 145.750 31.837 123.750 31.854 C 111.467 31.864,101.345 31.939,100.833 32.023 M157.477 32.218 C 156.868 32.426,156.020 32.883,155.592 33.234 C 155.164 33.585,154.314 34.145,153.702 34.479 C 152.762 34.993,152.470 35.269,151.810 36.268 C 151.350 36.965,150.781 37.597,150.423 37.807 C 149.439 38.388,149.315 38.912,149.172 43.079 C 149.032 47.150,149.034 47.159,150.200 47.766 C 151.013 48.189,251.967 48.109,252.798 47.684 C 253.546 47.303,253.848 46.975,254.326 46.025 C 254.678 45.324,254.710 45.304,255.296 45.414 C 256.154 45.575,257.116 46.101,257.430 46.580 C 257.578 46.806,258.153 47.217,258.709 47.495 L 259.720 48.000 283.994 48.000 L 308.268 48.000 308.801 47.450 C 310.722 45.468,310.227 36.897,308.099 35.273 C 307.774 35.025,306.950 34.305,306.268 33.672 C 304.101 31.663,306.408 31.833,281.296 31.833 L 259.794 31.833 259.165 32.462 C 258.555 33.072,258.533 33.137,258.430 34.587 C 258.371 35.410,258.216 36.908,258.086 37.917 C 257.955 38.925,257.778 40.335,257.693 41.051 C 257.499 42.669,257.433 42.734,256.779 41.943 C 256.488 41.591,255.901 40.942,255.474 40.500 C 255.048 40.058,254.646 39.521,254.583 39.306 C 253.722 36.412,253.045 35.155,252.027 34.561 C 251.600 34.311,250.892 33.752,250.455 33.318 C 248.890 31.765,254.016 31.922,203.333 31.879 L 158.583 31.840 157.477 32.218 M145.955 33.023 L 146.532 33.380 146.427 34.815 C 146.370 35.604,146.252 37.750,146.165 39.583 C 145.916 44.869,145.924 44.843,144.013 45.992 L 142.613 46.833 121.336 46.833 L 100.058 46.833 99.617 45.542 L 99.176 44.250 99.329 41.083 C 99.413 39.342,99.598 37.204,99.740 36.333 C 99.882 35.462,99.998 34.437,99.999 34.055 L 100.000 33.359 101.375 33.026 C 102.712 32.701,103.336 32.692,124.064 32.679 L 145.377 32.667 145.955 33.023 M247.555 33.004 C 248.121 33.215,248.788 33.660,249.350 34.199 C 249.843 34.670,250.697 35.261,251.248 35.511 L 252.251 35.966 252.696 37.525 C 253.742 41.191,253.771 43.449,252.796 45.414 L 252.092 46.833 201.401 46.833 L 150.711 46.833 150.406 45.792 C 149.841 43.863,150.159 40.372,150.978 39.506 C 151.903 38.529,152.428 37.795,152.847 36.890 C 153.257 36.005,153.411 35.834,153.953 35.658 C 155.109 35.284,156.783 34.358,157.199 33.864 C 158.233 32.635,154.844 32.721,203.785 32.692 C 246.433 32.667,246.659 32.668,247.555 33.004 M303.214 33.035 C 303.561 33.193,304.038 33.551,304.275 33.833 C 304.512 34.115,304.904 34.449,305.145 34.575 C 305.976 35.010,308.166 37.290,308.519 38.088 C 309.037 39.259,309.027 43.510,308.501 45.458 L 308.130 46.833 284.073 46.833 L 260.016 46.833 259.346 45.458 C 258.711 44.157,258.684 44.039,258.839 43.258 C 259.028 42.303,259.325 37.311,259.330 35.011 C 259.333 33.619,259.376 33.393,259.703 33.045 L 260.072 32.651 281.328 32.701 C 300.976 32.746,302.631 32.772,303.214 33.035 M98.250 52.862 C 96.442 53.208,96.255 53.682,95.925 58.755 C 95.776 61.044,95.549 63.629,95.421 64.500 C 95.292 65.371,95.145 66.617,95.094 67.269 C 95.043 67.922,94.821 68.935,94.601 69.521 C 94.356 70.171,94.129 71.291,94.018 72.390 C 93.918 73.382,93.795 74.261,93.744 74.343 C 93.593 74.587,93.174 80.595,93.170 82.561 L 93.167 84.373 93.814 85.020 L 94.461 85.667 117.384 85.667 L 140.308 85.667 140.824 85.232 C 141.590 84.588,141.647 84.403,141.915 81.717 C 142.204 78.811,142.667 75.833,142.831 75.833 C 143.262 75.833,143.620 78.150,143.806 82.138 L 143.917 84.526 144.539 85.097 L 145.162 85.667 166.653 85.667 C 191.643 85.667,190.335 85.749,191.916 84.072 C 192.194 83.778,192.930 83.296,193.552 83.002 C 194.416 82.595,194.788 82.304,195.126 81.776 C 195.370 81.395,195.918 80.706,196.343 80.245 C 197.309 79.198,197.343 79.082,198.087 74.417 C 198.423 72.308,198.728 70.553,198.764 70.516 C 199.008 70.265,199.352 71.837,199.817 75.333 C 199.947 76.309,199.736 81.056,199.490 82.689 C 199.250 84.283,199.345 84.576,200.298 85.180 L 201.065 85.667 208.241 85.665 C 216.415 85.664,217.319 85.583,218.114 84.784 L 218.645 84.250 218.912 80.083 C 219.059 77.792,219.284 75.204,219.413 74.333 C 219.541 73.462,219.688 72.216,219.739 71.564 C 219.904 69.450,220.922 67.279,222.147 66.430 L 222.768 66.000 233.437 66.000 L 244.107 66.000 246.012 65.320 C 247.059 64.945,248.303 64.502,248.775 64.334 C 250.045 63.883,250.474 63.541,250.948 62.599 C 251.598 61.310,251.968 60.856,252.658 60.504 C 253.403 60.124,253.441 59.972,253.606 56.706 C 253.724 54.372,253.428 53.330,252.506 52.836 C 252.084 52.610,206.314 52.604,204.935 52.829 C 203.028 53.142,202.759 53.723,202.432 58.232 C 202.295 60.125,202.142 61.738,202.094 61.817 C 202.045 61.896,201.929 62.824,201.837 63.880 C 201.609 66.481,201.496 66.775,201.023 66.000 C 200.740 65.534,200.667 65.148,200.665 64.083 C 200.662 62.398,199.940 59.937,199.166 58.974 C 198.879 58.618,198.457 57.896,198.227 57.371 C 197.919 56.667,197.452 56.074,196.446 55.109 C 193.720 52.494,195.537 52.667,170.690 52.667 C 148.577 52.667,149.850 52.615,148.592 53.559 C 148.312 53.769,147.537 54.114,146.870 54.326 C 145.779 54.673,145.680 54.739,145.891 54.981 C 146.240 55.380,146.610 56.174,146.751 56.826 C 146.819 57.144,147.160 57.781,147.508 58.243 C 147.856 58.705,148.195 59.308,148.261 59.583 C 148.435 60.306,149.572 62.528,150.071 63.121 C 150.599 63.749,152.601 64.798,154.577 65.483 L 156.071 66.000 166.791 66.000 L 177.511 66.000 178.808 66.500 C 181.193 67.420,181.194 68.746,178.809 69.666 L 177.511 70.167 162.771 70.167 L 148.031 70.167 147.112 70.915 C 146.607 71.326,146.015 71.892,145.796 72.171 L 145.398 72.680 144.157 72.492 C 143.007 72.318,142.856 72.246,142.083 71.503 C 140.582 70.060,141.701 70.167,128.092 70.167 L 116.001 70.167 115.375 69.599 C 115.031 69.287,114.618 68.804,114.456 68.528 L 114.162 68.024 115.099 67.012 L 116.036 66.000 129.420 66.000 L 142.804 66.000 143.222 65.503 C 143.956 64.631,144.285 63.410,144.572 60.494 C 144.721 58.985,144.961 57.054,145.106 56.202 C 145.405 54.434,145.248 53.988,144.027 53.152 L 143.441 52.750 121.262 52.726 C 107.724 52.711,98.759 52.764,98.250 52.862 M256.962 52.845 C 256.211 53.282,255.868 54.323,255.683 56.720 C 255.585 57.986,255.468 59.084,255.422 59.158 C 255.376 59.233,255.263 60.155,255.170 61.207 C 255.059 62.475,254.868 63.479,254.602 64.185 C 254.382 64.771,254.152 65.775,254.091 66.417 C 254.031 67.058,253.871 68.296,253.736 69.167 C 253.283 72.090,252.537 83.460,252.744 84.284 C 252.801 84.512,253.173 84.889,253.621 85.173 L 254.399 85.667 261.498 85.667 C 272.450 85.667,271.668 86.180,272.157 78.667 C 272.346 75.779,272.609 72.629,272.744 71.667 C 272.878 70.704,273.030 69.415,273.081 68.802 C 273.132 68.189,273.354 67.209,273.574 66.625 C 273.794 66.040,274.023 65.005,274.084 64.323 C 274.145 63.641,274.297 62.483,274.422 61.750 C 274.547 61.017,274.735 59.086,274.841 57.460 L 275.034 54.504 274.595 53.755 C 274.354 53.343,274.013 52.930,273.839 52.836 C 273.408 52.606,257.358 52.614,256.962 52.845 M290.929 53.340 C 290.412 53.816,290.099 54.289,289.903 54.888 C 289.748 55.362,289.443 56.104,289.227 56.536 C 288.909 57.171,288.833 57.587,288.832 58.703 C 288.830 59.509,288.718 60.430,288.562 60.917 C 288.305 61.714,288.181 63.153,287.856 69.107 C 287.775 70.586,287.651 71.891,287.580 72.006 C 287.509 72.121,287.403 73.160,287.345 74.316 C 287.250 76.216,287.188 76.526,286.703 77.560 C 286.245 78.536,286.167 78.891,286.167 79.977 C 286.168 80.751,286.022 81.821,285.795 82.708 L 285.422 84.166 286.003 84.742 C 286.857 85.589,287.660 85.664,295.902 85.665 L 303.054 85.667 303.776 85.244 C 304.608 84.756,304.910 84.253,305.073 83.083 C 305.136 82.625,305.404 81.313,305.667 80.167 C 306.222 77.749,306.588 74.972,306.832 71.333 C 307.295 64.415,307.570 62.130,308.335 58.833 C 309.756 52.717,309.834 52.770,299.212 52.702 L 291.673 52.654 290.929 53.340 M143.340 54.292 L 143.852 54.750 143.677 57.500 C 143.580 59.012,143.501 60.792,143.501 61.454 C 143.500 62.353,143.407 62.849,143.133 63.412 L 142.767 64.167 129.375 64.167 C 113.955 64.167,115.631 63.958,113.752 66.108 C 112.238 67.840,112.191 67.989,112.738 69.336 C 113.283 70.676,113.525 70.940,114.750 71.523 L 115.750 72.000 127.924 72.000 L 140.097 72.000 140.789 72.708 L 141.481 73.417 141.331 74.667 C 141.138 76.260,140.833 81.285,140.833 82.858 C 140.833 83.865,140.774 84.125,140.471 84.448 L 140.109 84.833 117.440 84.833 L 94.771 84.833 94.386 84.471 C 93.911 84.025,93.857 82.396,94.244 80.198 C 94.378 79.437,94.537 78.237,94.597 77.532 C 94.675 76.621,94.853 75.938,95.211 75.174 C 95.569 74.413,95.760 73.681,95.865 72.674 C 95.947 71.891,96.088 70.762,96.178 70.167 C 96.269 69.571,96.419 67.171,96.513 64.833 C 96.607 62.496,96.796 59.833,96.933 58.917 C 97.071 58.000,97.227 56.679,97.281 55.980 L 97.379 54.711 98.565 54.283 L 99.750 53.855 121.289 53.844 L 142.828 53.833 143.340 54.292 M193.128 54.078 C 193.646 54.199,193.955 54.449,195.069 55.645 C 195.337 55.932,195.633 56.167,195.727 56.167 C 196.179 56.167,196.858 57.132,197.187 58.243 C 197.379 58.888,197.635 59.604,197.757 59.833 C 198.054 60.392,198.740 62.707,198.670 62.917 C 197.751 65.700,197.441 67.559,197.076 72.500 C 196.818 75.995,196.349 78.678,195.973 78.811 C 195.478 78.986,194.654 79.943,194.404 80.633 C 194.047 81.614,193.713 81.914,192.619 82.234 C 191.892 82.447,190.127 83.560,189.833 83.991 C 189.323 84.740,189.400 84.737,166.745 84.795 L 145.407 84.850 145.059 84.466 C 144.725 84.099,144.721 84.041,144.952 83.083 C 145.086 82.533,145.232 81.333,145.279 80.417 C 145.332 79.368,145.446 78.657,145.587 78.499 C 146.270 77.734,146.663 76.423,146.665 74.910 L 146.667 73.403 147.375 72.707 L 148.084 72.012 163.584 71.959 C 180.731 71.900,180.007 71.948,180.820 70.825 C 182.004 69.191,182.001 66.972,180.815 65.334 C 180.034 64.256,180.346 64.283,167.083 64.151 C 152.778 64.008,152.878 64.019,151.179 62.321 C 149.417 60.558,148.606 55.215,149.958 54.279 L 150.583 53.847 171.583 53.898 C 183.133 53.927,192.828 54.007,193.128 54.078 M252.476 54.299 C 252.791 54.742,252.796 54.830,252.574 56.091 C 252.445 56.820,252.338 57.461,252.337 57.514 C 252.335 57.568,252.081 57.943,251.772 58.348 C 251.302 58.964,250.508 60.568,249.715 62.500 C 249.573 62.847,249.282 62.991,247.981 63.362 C 245.318 64.120,244.418 64.169,233.083 64.169 L 222.417 64.170 221.500 64.596 C 219.084 65.719,218.593 67.159,218.323 73.917 C 218.227 76.300,218.037 79.000,217.900 79.917 C 217.762 80.833,217.605 82.161,217.551 82.867 L 217.452 84.150 215.997 84.492 C 213.655 85.041,201.636 85.014,200.967 84.458 L 200.517 84.083 200.657 80.805 C 200.735 79.001,200.844 77.451,200.900 77.360 C 200.957 77.268,201.084 76.381,201.182 75.388 C 201.324 73.964,201.470 73.356,201.873 72.507 C 202.238 71.738,202.426 71.025,202.532 70.007 C 202.613 69.224,202.754 68.096,202.844 67.500 C 202.934 66.904,203.085 64.542,203.179 62.250 C 203.360 57.823,203.594 55.419,203.903 54.799 C 204.373 53.856,204.207 53.862,229.280 53.847 L 252.144 53.833 252.476 54.299 M273.805 54.293 C 274.114 54.728,274.120 54.827,273.905 56.063 C 273.779 56.783,273.628 57.945,273.569 58.645 C 273.492 59.545,273.313 60.231,272.955 60.993 C 272.598 61.754,272.407 62.486,272.302 63.493 C 272.220 64.276,272.079 65.404,271.989 66.000 C 271.899 66.596,271.750 68.958,271.657 71.250 C 271.565 73.542,271.374 76.242,271.233 77.250 C 271.092 78.258,270.912 79.646,270.833 80.333 C 270.754 81.021,270.516 82.157,270.303 82.859 L 269.917 84.134 268.917 84.486 C 267.352 85.035,255.073 85.027,254.299 84.476 L 253.798 84.118 253.911 80.184 C 253.973 78.020,254.130 75.612,254.258 74.833 C 254.387 74.054,254.541 72.854,254.600 72.167 C 254.675 71.295,254.859 70.594,255.209 69.848 C 255.547 69.126,255.757 68.342,255.857 67.431 C 255.938 66.690,256.083 65.499,256.179 64.784 C 256.391 63.200,256.652 58.677,256.661 56.442 C 256.666 55.057,256.720 54.726,257.011 54.317 L 257.356 53.833 265.417 53.833 L 273.477 53.833 273.805 54.293 M306.404 54.280 C 306.905 54.526,307.284 54.779,307.244 54.842 C 306.934 55.345,306.436 60.548,306.160 66.167 C 305.965 70.150,305.584 72.875,304.927 74.996 C 304.415 76.647,304.087 78.698,303.833 81.833 C 303.566 85.120,304.302 84.831,296.187 84.833 C 288.920 84.833,286.264 84.555,286.894 83.858 C 287.598 83.081,287.997 81.777,287.998 80.249 C 287.999 79.423,288.081 78.486,288.179 78.166 C 288.277 77.845,288.459 75.296,288.583 72.500 C 288.738 68.993,288.889 67.132,289.069 66.500 C 289.214 65.990,289.330 64.941,289.331 64.135 C 289.332 63.333,289.409 62.639,289.503 62.581 C 290.099 62.213,290.569 60.717,290.681 58.833 C 290.845 56.054,291.097 54.843,291.624 54.292 L 292.062 53.833 298.777 53.833 L 305.493 53.833 306.404 54.280 " stroke="none" fill="#ec8484" fill-rule="evenodd"></path><path id="path4" d="M56.667 0.601 C 56.667 1.899,55.750 4.447,55.083 5.000 C 54.756 5.271,54.000 6.716,54.000 7.069 C 54.000 7.708,52.939 10.163,52.361 10.863 C 51.888 11.435,51.571 12.118,51.111 13.551 C 50.655 14.974,50.307 15.726,49.771 16.445 C 49.253 17.140,48.871 17.948,48.429 19.283 C 48.089 20.310,47.630 21.398,47.408 21.700 C 46.523 22.908,46.351 23.259,45.680 25.230 C 45.172 26.722,44.812 27.484,44.350 28.043 C 43.725 28.799,43.270 29.844,42.759 31.697 C 42.613 32.225,42.242 32.963,41.920 33.364 C 41.079 34.413,40.720 35.141,40.333 36.583 C 39.955 37.995,39.506 38.982,39.083 39.333 C 38.675 39.672,38.169 40.750,37.811 42.038 C 37.419 43.456,36.928 44.515,36.402 45.083 C 35.867 45.661,35.618 46.181,35.188 47.616 C 34.673 49.339,34.291 50.157,33.638 50.937 C 33.228 51.426,32.887 52.171,32.450 53.533 C 32.114 54.584,31.652 55.700,31.425 56.014 C 31.197 56.327,30.889 56.750,30.740 56.954 C 30.590 57.157,30.171 58.170,29.807 59.204 C 29.148 61.080,28.446 62.500,28.178 62.500 C 28.007 62.500,27.648 63.362,26.895 65.578 C 26.585 66.491,26.116 67.507,25.853 67.834 C 25.173 68.680,24.568 69.938,24.249 71.171 C 23.918 72.447,23.619 73.060,22.956 73.821 C 22.379 74.484,22.082 75.140,21.640 76.725 C 21.281 78.018,20.821 78.998,20.417 79.333 C 19.994 79.684,19.525 80.711,19.071 82.275 C 18.582 83.963,18.380 84.380,17.594 85.321 C 17.241 85.743,16.896 86.414,16.743 86.974 C 16.259 88.744,15.638 90.165,15.023 90.909 C 14.593 91.430,14.242 92.166,13.850 93.368 C 13.221 95.297,12.859 96.077,12.338 96.629 C 11.921 97.070,11.746 97.467,10.925 99.833 C 10.591 100.796,10.107 101.847,9.849 102.170 C 9.174 103.013,8.764 103.883,8.258 105.542 C 7.984 106.439,7.594 107.288,7.246 107.744 C 6.464 108.768,5.908 109.914,5.583 111.169 C 5.432 111.752,5.164 112.513,4.987 112.858 C 4.811 113.204,4.667 113.752,4.667 114.077 L 4.667 114.667 177.250 114.667 L 349.833 114.667 349.833 113.922 C 349.833 113.342,349.938 113.058,350.311 112.631 C 350.847 112.016,351.500 110.809,351.500 110.432 C 351.500 109.792,352.560 107.338,353.139 106.637 C 353.612 106.065,353.929 105.382,354.389 103.949 C 354.845 102.526,355.193 101.774,355.729 101.055 C 356.247 100.360,356.629 99.552,357.071 98.217 C 357.411 97.190,357.870 96.102,358.092 95.800 C 358.977 94.592,359.149 94.241,359.820 92.270 C 360.328 90.778,360.688 90.016,361.150 89.457 C 361.775 88.701,362.230 87.656,362.741 85.803 C 362.887 85.275,363.258 84.537,363.580 84.136 C 364.421 83.087,364.780 82.359,365.167 80.917 C 365.545 79.505,365.994 78.518,366.417 78.167 C 366.825 77.828,367.331 76.750,367.689 75.462 C 368.081 74.046,368.571 72.985,369.094 72.421 C 369.654 71.817,369.760 71.587,370.440 69.495 C 370.871 68.173,371.246 67.370,371.748 66.696 C 372.246 66.029,372.635 65.200,373.071 63.883 C 373.411 62.857,373.869 61.769,374.089 61.467 C 374.309 61.164,374.611 60.750,374.760 60.546 C 374.910 60.343,375.329 59.330,375.693 58.296 C 376.352 56.420,377.054 55.000,377.322 55.000 C 377.493 55.000,377.852 54.138,378.605 51.922 C 378.915 51.009,379.384 49.993,379.647 49.666 C 380.327 48.820,380.932 47.562,381.251 46.329 C 381.582 45.053,381.881 44.440,382.544 43.679 C 383.121 43.016,383.418 42.360,383.860 40.775 C 384.219 39.482,384.679 38.502,385.083 38.167 C 385.506 37.816,385.975 36.789,386.429 35.225 C 386.918 33.537,387.120 33.120,387.906 32.179 C 388.259 31.757,388.604 31.086,388.757 30.526 C 389.241 28.756,389.862 27.335,390.477 26.591 C 390.907 26.070,391.258 25.334,391.650 24.132 C 392.279 22.203,392.641 21.423,393.162 20.871 C 393.579 20.430,393.754 20.033,394.575 17.667 C 394.909 16.704,395.392 15.654,395.648 15.333 C 396.312 14.505,396.637 13.822,397.255 11.962 C 397.965 9.824,398.456 9.167,399.342 9.167 L 400.000 9.167 400.000 4.583 L 400.000 0.000 228.333 0.000 L 56.667 0.000 56.667 0.601 M148.076 31.750 C 149.531 32.483,149.718 32.818,149.681 34.634 L 149.651 36.128 150.189 36.316 C 150.805 36.531,150.898 36.451,151.167 35.481 C 151.394 34.663,152.047 34.053,152.976 33.791 C 153.622 33.608,153.815 33.454,154.148 32.850 C 154.623 31.989,155.384 31.598,157.093 31.336 C 159.020 31.040,249.245 31.182,250.000 31.481 C 250.779 31.791,251.291 32.276,251.528 32.930 C 251.683 33.361,251.917 33.554,252.691 33.887 C 253.745 34.342,253.892 34.553,254.434 36.390 L 254.722 37.363 256.069 37.246 C 257.705 37.104,257.481 37.419,257.684 34.980 C 258.040 30.710,255.186 31.167,281.500 31.168 C 307.012 31.169,306.239 31.120,307.080 32.790 C 307.536 33.696,307.980 34.167,308.379 34.167 C 308.559 34.167,308.987 34.448,309.331 34.792 C 310.001 35.462,310.012 35.501,310.483 39.162 C 310.627 40.281,310.748 40.657,311.064 40.973 L 311.464 41.373 311.088 42.561 C 310.881 43.215,310.590 44.526,310.440 45.474 C 310.111 47.559,309.821 48.222,309.087 48.570 C 308.302 48.943,259.693 48.969,258.083 48.598 C 255.427 47.985,254.775 47.947,254.069 48.365 L 253.417 48.750 201.750 48.795 C 145.068 48.845,149.053 48.912,148.393 47.904 L 148.134 47.508 147.602 47.914 C 146.360 48.861,147.124 48.833,122.218 48.833 C 96.527 48.833,98.608 48.942,97.398 47.538 C 96.809 46.853,96.682 46.561,96.464 45.378 C 96.188 43.881,96.208 43.805,97.113 42.819 C 97.599 42.291,97.819 40.300,97.828 36.365 C 97.836 32.677,98.134 31.845,99.614 31.386 C 100.093 31.238,106.049 31.197,123.667 31.220 L 147.083 31.250 148.076 31.750 M147.864 40.037 C 147.614 42.075,147.631 44.553,147.900 45.417 L 148.109 46.083 148.327 44.833 C 148.555 43.527,148.479 39.888,148.203 38.922 C 148.085 38.509,148.030 38.691,147.864 40.037 M143.372 51.113 C 143.763 51.266,144.344 51.566,144.664 51.779 C 145.518 52.350,147.982 52.350,148.836 51.779 C 150.343 50.773,148.951 50.833,170.800 50.833 C 192.656 50.833,190.887 50.756,192.000 51.760 C 192.283 52.016,192.862 52.219,193.803 52.395 C 194.565 52.536,195.587 52.834,196.072 53.057 C 196.970 53.468,197.051 53.552,198.108 55.167 C 198.438 55.671,198.966 56.340,199.280 56.653 C 200.108 57.478,200.638 58.468,201.043 59.948 C 201.497 61.610,201.602 61.248,201.754 57.500 C 201.909 53.651,202.010 53.261,203.116 52.233 C 204.693 50.766,203.427 50.833,229.614 50.833 L 252.125 50.833 252.932 51.666 C 254.093 52.862,254.193 53.135,254.366 55.574 C 254.636 59.367,254.751 59.291,255.148 55.057 C 255.330 53.117,255.459 52.809,256.568 51.666 L 257.375 50.833 265.417 50.833 L 273.458 50.833 274.266 51.666 C 275.465 52.902,275.561 53.159,275.641 55.333 C 275.732 57.822,275.382 65.181,275.086 67.000 C 274.959 67.779,274.805 68.942,274.744 69.583 C 274.631 70.760,274.435 71.237,273.749 72.000 C 273.220 72.589,273.196 72.804,272.996 78.833 C 272.726 86.995,273.698 86.373,261.333 86.298 C 252.459 86.244,253.114 86.337,251.666 84.932 L 250.833 84.125 250.833 82.766 C 250.833 81.362,250.927 81.097,251.755 80.167 C 252.270 79.588,252.336 79.058,252.514 74.018 C 252.923 62.481,252.923 62.726,252.509 62.505 C 252.055 62.262,252.030 62.286,251.596 63.375 C 251.212 64.338,250.835 64.604,249.164 65.088 C 248.480 65.286,248.174 65.477,247.971 65.830 C 247.146 67.267,246.644 67.320,233.654 67.327 L 222.725 67.333 222.385 67.708 C 222.031 68.098,221.632 69.958,221.409 72.250 C 221.296 73.414,220.975 74.169,220.356 74.729 C 219.913 75.130,219.815 75.975,219.683 80.500 C 219.553 84.950,219.442 85.408,218.362 85.945 C 217.501 86.374,200.388 86.419,199.624 85.995 C 198.953 85.622,197.509 84.176,197.579 83.947 C 197.612 83.839,197.685 83.539,197.742 83.281 C 197.812 82.960,197.998 82.759,198.329 82.643 C 199.009 82.406,199.370 78.362,198.942 75.776 C 198.759 74.674,198.724 74.777,198.427 77.254 C 198.008 80.747,198.036 80.646,197.273 81.355 C 196.894 81.708,196.497 81.997,196.391 81.998 C 196.286 81.999,196.045 82.263,195.855 82.583 C 195.500 83.187,194.905 83.536,193.743 83.826 C 193.195 83.963,193.031 84.099,192.867 84.552 C 192.625 85.223,192.119 85.707,191.333 86.019 C 190.438 86.374,145.277 86.454,144.435 86.102 C 143.471 85.699,143.109 84.631,142.819 81.333 C 142.806 81.196,142.665 81.962,142.505 83.035 C 142.339 84.147,142.090 85.175,141.927 85.424 C 141.302 86.378,142.506 86.333,117.380 86.333 C 91.516 86.333,93.420 86.423,92.792 85.167 C 92.283 84.147,92.485 73.136,93.086 69.167 C 93.218 68.296,93.373 67.096,93.432 66.500 C 93.539 65.400,93.744 64.916,94.418 64.167 C 94.938 63.589,95.010 63.016,95.157 58.258 C 95.334 52.573,95.745 51.757,98.742 51.141 C 100.812 50.715,142.292 50.689,143.372 51.113 M306.583 51.101 C 309.557 51.634,310.312 52.981,310.006 57.208 C 309.705 61.363,309.294 63.272,308.398 64.667 C 307.914 65.419,307.734 67.337,307.497 74.250 C 307.218 82.386,306.995 83.806,305.818 84.948 C 304.377 86.346,305.154 86.250,295.250 86.250 C 285.334 86.250,285.490 86.268,284.917 85.060 C 284.554 84.295,284.794 78.047,285.232 76.854 C 285.398 76.404,285.500 75.599,285.500 74.751 L 285.500 73.376 286.163 72.733 C 287.079 71.844,287.118 71.545,287.345 63.667 C 287.604 54.688,287.874 53.851,291.317 51.363 L 292.050 50.833 298.567 50.833 C 303.830 50.833,305.372 50.884,306.583 51.101 M145.168 61.789 C 144.902 64.312,144.592 65.871,144.252 66.391 C 143.614 67.364,144.090 67.333,129.462 67.333 L 116.058 67.333 115.695 67.720 L 115.331 68.107 115.713 68.465 L 116.094 68.823 128.672 68.870 L 141.250 68.917 142.667 69.485 C 143.446 69.798,144.376 70.247,144.734 70.482 C 145.352 70.890,145.393 70.896,145.567 70.604 C 146.698 68.708,145.411 68.841,162.632 68.837 C 177.231 68.833,177.526 68.827,178.173 68.497 C 178.536 68.311,178.833 68.125,178.833 68.083 C 178.833 67.389,177.934 67.334,166.548 67.327 C 153.563 67.320,153.106 67.274,152.215 65.873 C 151.839 65.282,151.764 65.232,150.619 64.808 C 149.733 64.480,148.833 63.725,148.833 63.310 C 148.833 62.585,148.106 61.535,147.473 61.345 C 147.103 61.234,146.480 60.848,146.087 60.486 L 145.374 59.828 145.168 61.789 " stroke="none" fill="#dc0404" fill-rule="evenodd"></path></g></svg>